<?xml version="1.0" standalone="no"?><!DOCTYPE svg PUBLIC "-//W3C//DTD SVG 1.1//EN" "http://www.w3.org/Graphics/SVG/1.1/DTD/svg11.dtd"><svg class="icon" viewBox="0 0 1024 1024" version="1.1" xmlns="http://www.w3.org/2000/svg" xmlns:xlink="http://www.w3.org/1999/xlink" width="1024" height="1024"><path d="M936.837848 330.425571c-23.303752-55.096852-56.659441-104.572684-99.139951-147.053194-5.127787-5.127787-10.359952-10.119475-15.689331-14.980179L712.691835 308.016189c53.894468 54.1769 83.572394 126.060067 83.572394 202.508203 0 76.706009-29.871331 148.820444-84.110653 203.059765-14.435781 14.435781-30.148647 27.126824-46.866401 38.006616 0.163729 2.289136 0.251733 4.598738 0.251733 6.92983 0 52.867068-42.857087 95.723132-95.723132 95.723132-39.402405 0-73.240071-23.810289-87.921445-57.824987-66.436108-6.202259-128.084167-35.05847-175.860287-82.83459-54.239322-54.239322-84.10963-126.353756-84.10963-203.059765s29.870308-148.821467 84.10963-203.060789 126.354779-84.10963 203.060789-84.10963c55.358819 0 108.323101 15.564487 153.906276 44.61308l109.011786-139.234111c-25.467021-17.473977-52.650127-32.355919-81.365122-44.500517-57.059554-24.133653-117.65463-36.371372-180.098821-36.371372-62.445214 0-123.039267 12.236696-180.098821 36.371372-55.097876 23.303752-104.572684 56.659441-147.053194 99.139951-42.48051 42.479487-75.835176 91.955318-99.139951 147.053194-24.133653 57.060577-36.371372 117.65463-36.371372 180.099844 0 62.444191 12.236696 123.039267 36.371372 180.098821 23.303752 55.097876 56.659441 104.572684 99.139951 147.053194 42.479487 42.48051 91.955318 75.835176 147.053194 99.138928 57.059554 24.134677 117.653607 36.371372 180.098821 36.371372 62.444191 0 123.039267-12.236696 180.098821-36.370349 55.097876-23.303752 104.573707-56.659441 147.053194-99.139951 42.48051-42.48051 75.835176-91.955318 99.139951-147.053194 24.134677-57.059554 36.371372-117.65463 36.371372-180.098821C973.20922 448.080202 960.972525 387.486148 936.837848 330.425571z" ></path><path d="M509.092787 446.708971c4.431939 0 8.757454 0.453325 12.93459 1.313925l101.284801-129.365346c-33.44267-19.983123-72.510454-31.487132-114.219391-31.487132-123.157971 0-223.354997 100.197026-223.354997 223.354997 0 112.574938 83.72282 205.948559 192.169741 221.167169 11.601222-39.806611 48.354288-68.89409 91.9062-68.89409 27.128871 0 51.618635 11.288091 69.037353 29.420053 56.625672-40.555671 93.596701-106.885356 93.596701-181.692109 0-58.501392-22.61916-111.811552-59.557444-151.673421L569.724703 490.61904c2.055822 6.265704 3.183506 12.951987 3.183506 19.905352 0 35.244712-28.570709 63.815421-63.815421 63.815421s-63.815421-28.571732-63.815421-63.815421S473.848075 446.708971 509.092787 446.708971z"></path></svg>