<?xml version="1.0" standalone="no"?><!DOCTYPE svg PUBLIC "-//W3C//DTD SVG 1.1//EN" "http://www.w3.org/Graphics/SVG/1.1/DTD/svg11.dtd"><svg class="icon" viewBox="0 0 1024 1024" version="1.1" xmlns="http://www.w3.org/2000/svg" xmlns:xlink="http://www.w3.org/1999/xlink" width="1024" height="1024"><path d="M936.837848 330.425571c-23.303752-55.096852-56.659441-104.572684-99.139951-147.053194-42.479487-42.479487-91.955318-75.835176-147.053194-99.138928-57.059554-24.133653-117.65463-36.371372-180.098821-36.371372-62.445214 0-123.039267 12.236696-180.098821 36.371372-55.097876 23.303752-104.572684 56.659441-147.053194 99.139951-42.48051 42.479487-75.835176 91.955318-99.139951 147.053194-24.133653 57.060577-36.371372 117.65463-36.371372 180.099844 0 62.444191 12.236696 123.039267 36.371372 180.098821 23.303752 55.097876 56.659441 104.572684 99.139951 147.053194 42.479487 42.48051 91.955318 75.835176 147.053194 99.138928 57.059554 24.134677 117.653607 36.371372 180.098821 36.371372 62.444191 0 123.039267-12.236696 180.098821-36.370349 55.097876-23.303752 104.573707-56.659441 147.053194-99.139951 42.48051-42.48051 75.835176-91.955318 99.139951-147.053194 24.134677-57.059554 36.371372-117.65463 36.371372-180.098821C973.20922 448.080202 960.972525 387.486148 936.837848 330.425571zM510.545882 909.37231c-219.924875 0-398.846894-178.923042-398.846894-398.847917 0-219.925898 178.922019-398.847917 398.846894-398.847917 82.21856 0 158.703535 25.009603 222.254943 67.815525l-69.449745 88.704275c-45.661969-29.193903-98.755188-44.842301-154.258293-44.842301-76.706009 0-148.821467 29.870308-203.060789 84.10963s-84.10963 126.354779-84.10963 203.060789 29.870308 148.820444 84.10963 203.059765c47.77612 47.77612 109.424178 76.633355 175.860287 82.83459 14.681374 34.014698 48.51904 57.824987 87.921445 57.824987 52.867068 0 95.723132-42.857087 95.723132-95.723132 0-2.331092-0.088004-4.640694-0.251733-6.92983 16.717753-10.879792 32.43062-23.570835 46.866401-38.006616 54.239322-54.239322 84.110653-126.353756 84.110653-203.059765 0-76.307943-29.572526-148.06422-83.277682-202.206328l69.741387-89.076758c77.901231 72.838935 126.665865 176.472224 126.665865 291.283086C909.394822 730.450291 730.47178 909.37231 510.545882 909.37231zM569.814754 662.797471c-43.551912 0-80.306001 29.087479-91.9062 68.89409-108.446921-15.21861-192.169741-108.59223-192.169741-221.167169 0-123.157971 100.197026-223.354997 223.354997-223.354997 41.859363 0 81.060177 11.584849 114.582665 31.702026l-101.19782 129.253806c-4.317329-0.921999-8.792247-1.417279-13.384845-1.417279-35.244712 0-63.815421 28.570709-63.815421 63.815421s28.571732 63.815421 63.815421 63.815421 63.815421-28.571732 63.815421-63.815421c0-6.777357-1.065262-13.302981-3.022847-19.431561l103.294574-131.931798c36.767392 39.828101 59.268872 93.013417 59.268872 151.36336 0 74.806753-36.97103 141.136437-93.596701 181.692109C621.433388 674.085562 596.942601 662.797471 569.814754 662.797471z"></path></svg>