<?xml version="1.0" standalone="no"?><!DOCTYPE svg PUBLIC "-//W3C//DTD SVG 1.1//EN" "http://www.w3.org/Graphics/SVG/1.1/DTD/svg11.dtd"><svg t="1587982658704" class="icon" viewBox="0 0 1639 1024" version="1.1" xmlns="http://www.w3.org/2000/svg" p-id="2007" xmlns:xlink="http://www.w3.org/1999/xlink" width="1639" height="1024"><defs><style type="text/css"></style></defs><path d="M1210.06848 739.1616l-196.80256-76.69632c0 0-37.53344-14.57024-52.11136-28.89984-9.37216-9.21216-8.69376-30.94272-0.40064-58.70208 8.29312-27.75936 109.18272-140.57088 109.18272-243.04768 0-158.26304-104.04608-286.58048-232.38272-286.58048-128.32768 0-232.3648 128.31872-232.3648 286.59072 0 98.15168 89.90336 215.16288 100.99584 236.43136 11.10144 21.2672 8.40064 53.68192-0.3648 63.49952-13.16224 14.74944-61.25184 29.53344-61.25184 29.53344l-177.41696 79.06944c-41.4464 14.89152-73.92384 53.984-73.92384 98.08896l0 20.91904c0 48.13568 39.09376 77.58976 87.13856 77.58976l297.56672 0 101.99552 0 316.92672 0c48.05504 0 87.14752-29.45408 87.14752-77.58976l0-20.91904C1284.00128 794.33216 1251.52512 754.04416 1210.06848 739.1616L1210.06848 739.1616z" p-id="2008"></path></svg>