<?xml version="1.0" standalone="no"?><!DOCTYPE svg PUBLIC "-//W3C//DTD SVG 1.1//EN" "http://www.w3.org/Graphics/SVG/1.1/DTD/svg11.dtd"><svg t="1587981076630" class="icon" viewBox="0 0 1024 1024" version="1.1" xmlns="http://www.w3.org/2000/svg" p-id="2542" xmlns:xlink="http://www.w3.org/1999/xlink" width="1024" height="1024"><path d="M883.455033 760.067842l-196.802248-76.6968c0 0-37.532825-14.570857-52.111868-28.900214-9.372461-9.211802-8.694009-30.942733-0.401136-58.70196 8.292873-27.759227 109.182678-140.570549 109.182678-243.047502 0-158.26249-104.045681-286.580994-232.382605-286.580994-128.327714 0-232.364185 128.318504-232.364185 286.590204 0 98.151437 89.903589 215.163431 100.996229 236.430804 11.101849 21.267373 8.400321 53.68162-0.36532 63.49922-13.161764 14.748912-61.252039 29.53364-61.252039 29.53364l-177.416735 79.068823c-41.446971 14.892175-73.92364 53.984518-73.92364 98.089016l0 20.919449c0 48.1353 39.093367 77.589123 87.138616 77.589123l297.567209 0 101.994975 0 316.926116 0c48.054459 0 87.147826-29.453822 87.147826-77.589123l0-20.919449C957.387883 815.238372 924.911214 774.950807 883.455033 760.067842zM893.572462 880.271528c0 5.619998-1.738597 7.094582-3.00852 8.1711-4.136204 3.507894-11.734252 5.601578-20.322861 5.601578l-716.488301 0c-8.584516 0-16.179494-2.093684-20.314675-5.600555-1.269923-1.077541-3.009544-2.552126-3.009544-8.172123l0-20.919449c0-14.94334 13.917988-31.648814 31.686676-38.032198l4.399193-1.768273 174.031639-77.56047c29.204136-9.281387 66.479087-24.660656 86.273922-46.840818 31.204699-34.948977 29.139667-97.56099 9.323343-135.520533-3.358491-6.439666-8.036024-13.594623-15.115256-24.425296-13.452383-20.582781-33.783431-51.686173-50.808176-86.915535-23.000853-47.592948-27.828812-78.234829-27.828812-95.559403 0-61.96119 19.111267-119.656217 53.813626-162.455999 31.53625-38.896892 72.284303-60.317761 114.735138-60.317761 42.456974 0 83.208097 21.421892 114.750487 60.318784 34.703383 42.799782 53.816696 100.490715 53.816696 162.446789 0 54.740742-46.512337 124.969223-74.302263 166.927847-16.95516 25.600051-27.189246 41.051975-32.209586 57.851593-16.235776 54.347792-10.579963 95.556333 16.811898 122.480542 21.627577 21.255093 58.780755 37.06722 73.751724 42.878576l196.7255 76.667124 1.609661 0.602727c17.467837 6.271844 31.679513 23.865547 31.679513 39.22128L893.573485 880.271528z" p-id="2543"></path></svg>