<?xml version="1.0" standalone="no"?><!DOCTYPE svg PUBLIC "-//W3C//DTD SVG 1.1//EN" "http://www.w3.org/Graphics/SVG/1.1/DTD/svg11.dtd"><svg t="1587982684394" class="icon" viewBox="0 0 1024 1024" version="1.1" xmlns="http://www.w3.org/2000/svg" p-id="2273" xmlns:xlink="http://www.w3.org/1999/xlink" width="1024" height="1024"><defs><style type="text/css"></style></defs><path d="M352.068498 64.174602 159.598928 64.174602c-52.782134 0-95.723132 42.940998-95.723132 95.723132L63.875796 352.368326c0 52.782134 42.940998 95.723132 95.723132 95.723132l192.46957 0c52.782134 0 95.723132-42.940998 95.723132-95.723132L447.791629 159.897733C447.792653 107.1156 404.850631 64.174602 352.068498 64.174602z" p-id="2274"></path><path d="M352.068498 511.550769 159.598928 511.550769c-52.782134 0-95.723132 42.940998-95.723132 95.723132l0 192.46957c0 52.782134 42.940998 95.723132 95.723132 95.723132l192.46957 0c52.782134 0 95.723132-42.940998 95.723132-95.723132L447.791629 607.274924C447.792653 554.49279 404.850631 511.550769 352.068498 511.550769z" p-id="2275"></path><path d="M607.331205 448.022896l192.470593 0c52.782134 0 95.723132-42.940998 95.723132-95.723132L895.52493 159.829172c0-52.782134-42.940998-95.723132-95.723132-95.723132L607.331205 64.10604c-52.782134 0-95.723132 42.940998-95.723132 95.723132l0 192.470593C511.608074 405.081898 554.549072 448.022896 607.331205 448.022896z" p-id="2276"></path><path d="M929.257196 885.098463l-70.209038-70.209038c22.314215-31.304983 35.453467-69.581752 35.453467-110.869087 0-105.564267-85.883019-191.446263-191.447287-191.446263s-191.446263 85.881996-191.446263 191.446263S597.49007 895.467625 703.054337 895.467625c41.287335 0 79.564104-13.138228 110.869087-35.452443l70.209038 70.209038c12.409634 12.409634 32.715099 12.409634 45.124733 0l0 0C941.66683 917.814586 941.66683 897.508098 929.257196 885.098463zM703.054337 640.204917c-35.18843 0-63.815421 28.628014-63.815421 63.815421 0 17.622356-14.285355 31.907711-31.907711 31.907711s-31.907711-14.285355-31.907711-31.907711c0-70.375837 57.253982-127.630842 127.630842-127.630842 17.622356 0 31.907711 14.285355 31.907711 31.907711S720.676693 640.204917 703.054337 640.204917z" p-id="2277"></path></svg>